<svg xmlns="http://www.w3.org/2000/svg" width="39.019" height="43.214" viewBox="0 0 39.019 43.214">
  <g id="Package" transform="translate(-4.491 -2.446)">
    <path id="Path_40" data-name="Path 40" d="M33,18.8,15,8.42" fill="none" stroke="#565a6c" stroke-linecap="round" stroke-linejoin="round" stroke-width="3"/>
    <path id="Path_41" data-name="Path 41" d="M42,32V16h0a4,4,0,0,0-2-3.46l-14-8h0a4,4,0,0,0-4,0l-14,8H8A4,4,0,0,0,6,16V32H6a4,4,0,0,0,2,3.46l14,8h0a4,4,0,0,0,4,0l14-8h0A4,4,0,0,0,42,32Z" fill="none" stroke="#565a6c" stroke-linecap="round" stroke-linejoin="round" stroke-width="3"/>
    <path id="Path_42" data-name="Path 42" d="M6.54,13.92,24,24.02l17.46-10.1" fill="none" stroke="#565a6c" stroke-linecap="round" stroke-linejoin="round" stroke-width="3"/>
    <path id="Path_43" data-name="Path 43" d="M24,44.16V24" fill="none" stroke="#565a6c" stroke-linecap="round" stroke-linejoin="round" stroke-width="3"/>
  </g>
</svg>
