<svg xmlns="http://www.w3.org/2000/svg" width="47" height="47" viewBox="0 0 47 47">
  <g id="Settings" transform="translate(-0.5 -0.5)">
    <path id="Path_46" data-name="Path 46" d="M28.243,19.757a6,6,0,1,1-8.485,0,6,6,0,0,1,8.485,0" fill="none" stroke="#565a6c" stroke-linecap="round" stroke-linejoin="round" stroke-width="3"/>
    <path id="Path_47" data-name="Path 47" d="M38.8,30h0a3.3,3.3,0,0,0,.66,3.64l.12.12h0a4,4,0,0,1,0,5.657l0,0h0a4,4,0,0,1-5.657,0l0,0-.12-.12h0a3.3,3.3,0,0,0-3.64-.66h0a3.3,3.3,0,0,0-2,3.02V42h0a4,4,0,0,1-4,4h0a4,4,0,0,1-4-4h0v-.18h0A3.3,3.3,0,0,0,18,38.8h0a3.3,3.3,0,0,0-3.64.66l-.12.12h0a4,4,0,0,1-5.657,0l0,0h0a4,4,0,0,1,0-5.657l0,0,.12-.12h0a3.3,3.3,0,0,0,.66-3.64h0a3.3,3.3,0,0,0-3.02-2H6a4,4,0,0,1-4-4H2a4,4,0,0,1,4-4h.18A3.3,3.3,0,0,0,9.2,18h0a3.3,3.3,0,0,0-.66-3.64l-.12-.12h0a4,4,0,0,1,0-5.657l0,0h0a4,4,0,0,1,5.657,0l0,0,.12.12h0a3.3,3.3,0,0,0,3.64.66H18a3.3,3.3,0,0,0,2-3.02V6h0a4,4,0,0,1,4-4h0a4,4,0,0,1,4,4v.18h0A3.3,3.3,0,0,0,30,9.2h0a3.3,3.3,0,0,0,3.64-.66l.12-.12h0a4,4,0,0,1,5.657,0l0,0h0a4,4,0,0,1,0,5.657l0,0-.12.12h0a3.3,3.3,0,0,0-.66,3.64V18h0a3.3,3.3,0,0,0,3.02,2H42a4,4,0,0,1,4,4h0a4,4,0,0,1-4,4h-.18a3.3,3.3,0,0,0-3.02,2Z" fill="none" stroke="#565a6c" stroke-linecap="round" stroke-linejoin="round" stroke-width="3"/>
  </g>
</svg>
