<svg xmlns="http://www.w3.org/2000/svg" width="47" height="39.065" viewBox="0 0 47 39.065">
  <g id="Users" transform="translate(-0.5 -4.435)">
    <path id="Path_36" data-name="Path 36" d="M34,42V38h0a8,8,0,0,0-8-8H10a8,8,0,0,0-8,8H2v4" fill="none" stroke="#565a6c" stroke-linecap="round" stroke-linejoin="round" stroke-width="3"/>
    <path id="Path_37" data-name="Path 37" d="M23.657,8.343a8,8,0,1,1-11.314,0,8,8,0,0,1,11.314,0" fill="none" stroke="#565a6c" stroke-linecap="round" stroke-linejoin="round" stroke-width="3"/>
    <path id="Path_38" data-name="Path 38" d="M46,42V38h0a8,8,0,0,0-6-7.74" fill="none" stroke="#565a6c" stroke-linecap="round" stroke-linejoin="round" stroke-width="3"/>
    <path id="Path_39" data-name="Path 39" d="M32,6.26h0a8,8,0,0,1,0,15.5" fill="none" stroke="#565a6c" stroke-linecap="round" stroke-linejoin="round" stroke-width="3"/>
  </g>
</svg>
